<svg id="logosandtypes_com" xmlns="http://www.w3.org/2000/svg" viewBox="0 0 150 150.2"><path d="M0 .2h150v150H0V.2z" fill="none"/><g><linearGradient id="a" gradientUnits="userSpaceOnUse" x1="75.3942" y1="94.7373" x2="93.0417" y2="94.7373"><stop offset="0" stop-color="#2d7ec6"/><stop offset="1" stop-color="#1a4295"/></linearGradient><path d="M93 70.8c-.2 1.4-1 2.9-1.4 4.2-1.6 4.8-5.7 10.1-16.2 18.8 13.7 9.3 17.1 21 17.6 24.8 0 .2.1-48.1 0-47.8z" fill="url(#a)"/><linearGradient id="b" gradientUnits="userSpaceOnUse" x1="180.9965" y1="-19.3013" x2="203.3927" y2="-44.1827" gradientTransform="translate(-116.01 101)"><stop offset="0" stop-color="#389ee1"/><stop offset="1" stop-color="#183b8f"/></linearGradient><path d="M93 68.6c0-9.6-7.8-17.3-17.4-17.3-9.6.1-17.3 7.9-17.3 17.5 0 .4 0 .8.1 1.1.3 3.5-.1 13.2 17.6 23.9.1 0 .1-.1.2-.1C86.5 87 90.6 79.9 92.1 75c.5-1.4.8-2.8.9-4.2v-2.2z" fill="url(#b)"/><linearGradient id="c" gradientUnits="userSpaceOnUse" x1="75.6313" y1="-74.7613" x2="75.6313" y2="-108.9776" gradientTransform="translate(-.01 118)"><stop offset="0" stop-color="#389ee1"/><stop offset="1" stop-color="#183b8f"/></linearGradient><circle cx="75.6" cy="26.1" r="17.1" fill="url(#c)"/><linearGradient id="d" gradientUnits="userSpaceOnUse" x1="191.6507" y1="35.2086" x2="191.6507" y2="-6.3262" gradientTransform="translate(-116.01 101)"><stop offset="0" stop-color="#389ee1"/><stop offset="1" stop-color="#183b8f"/></linearGradient><path d="M93 119c-.1-2.2-1.3-13.7-17-24.3-.5-.3-1.2.5-1.6.2C56.5 107.3 58.3 119 58.3 119c0 9.6 7.7 17.4 17.3 17.4S93 128.7 93 119.1v-.1z" fill="url(#d)"/><path d="M93 116.6c-.5-3.9-3.2-13.4-16.8-22.7l-.2-.1C61.1 83.6 58.7 72.6 58.3 69.1c0 0-2.2 13.7 16.1 25.8 17.5 11.6 18.5 22 18.6 24.2v-2.5z" fill="#41b8ec"/></g></svg>